<svg width="50" height="50" viewBox="0 0 50 50" fill="none" xmlns="http://www.w3.org/2000/svg">
<path fill-rule="evenodd" clip-rule="evenodd" d="M26.3209 8.08004C26.3467 8.09221 26.3727 8.10439 26.3987 8.11663L41.3704 15.1491C42.2845 15.5784 43.104 15.9633 43.722 16.3238C44.3005 16.6613 45.1704 17.2281 45.625 18.2196C46.1687 19.4055 46.1189 20.7805 45.4907 21.9236C44.9655 22.8792 44.0569 23.381 43.4555 23.6754C42.813 23.9899 41.9678 24.3139 41.025 24.6753L36.1707 26.5366C35.0096 26.9819 33.7088 26.3974 33.2654 25.2314C32.822 24.0653 33.404 22.759 34.5652 22.3138L39.3284 20.4874C39.962 20.2445 40.4498 20.0566 40.8336 19.8989C40.4622 19.7136 39.9893 19.4906 39.3749 19.202L24.4916 12.211C24.0715 12.0137 23.7566 11.8666 23.5079 11.7564C23.5019 12.0293 23.5012 12.3781 23.5012 12.8438V28.7399C23.5012 29.9881 22.4936 31 21.2506 31C20.0077 31 19 29.9881 19 28.7399V12.8438C19 12.815 19 12.7862 19 12.7576C18.9999 12.0596 18.9999 11.3904 19.0498 10.8403C19.102 10.2676 19.2292 9.4886 19.7205 8.77129C20.35 7.85226 21.3243 7.22973 22.42 7.04653C23.2751 6.90357 24.0317 7.11787 24.5703 7.31312C25.0877 7.50064 25.6913 7.78425 26.3209 8.08004Z" fill="#623EF4"/>
<path fill-rule="evenodd" clip-rule="evenodd" d="M23.6791 41.92C23.6533 41.9078 23.6273 41.8956 23.6013 41.8834L8.62962 34.8509C7.7155 34.4216 6.89596 34.0367 6.278 33.6762C5.6995 33.3387 4.82962 32.7719 4.37505 31.7804C3.8313 30.5945 3.88114 29.2195 4.50932 28.0764C5.03448 27.1208 5.94309 26.619 6.54446 26.3246C7.18697 26.0101 8.03218 25.6861 8.97499 25.3247L13.8293 23.4634C14.9904 23.0181 16.2912 23.6026 16.7345 24.7686C17.178 25.9347 16.596 27.241 15.4348 27.6862L10.6716 29.5126C10.038 29.7555 9.55015 29.9434 9.16638 30.1011C9.53774 30.2864 10.0107 30.5094 10.625 30.798L25.5084 37.789C25.9285 37.9863 26.2434 38.1334 26.4921 38.2436C26.4981 37.9707 26.4988 37.6219 26.4988 37.1562V21.2601C26.4988 20.0119 27.5064 19 28.7494 19C29.9923 19 31 20.0119 31 21.2601V37.1562C31 37.185 31 37.2138 31 37.2425C31.0001 37.9404 31.0001 38.6096 30.9502 39.1597C30.898 39.7324 30.7708 40.5114 30.2795 41.2287C29.65 42.1477 28.6757 42.7703 27.58 42.9535C26.7249 43.0964 25.9682 42.8821 25.4297 42.6869C24.9123 42.4994 24.3087 42.2157 23.6791 41.92Z" fill="white"/>
</svg>
