<svg width="195" height="55" viewBox="0 0 195 55" fill="none" xmlns="http://www.w3.org/2000/svg">
<path fill-rule="evenodd" clip-rule="evenodd" d="M21.4174 46.2475C21.3892 46.2345 21.361 46.2215 21.3327 46.2083L5.03855 38.6743C4.04368 38.2144 3.15175 37.8021 2.47921 37.4158C1.84962 37.0542 0.9029 36.447 0.408174 35.3848C-0.183601 34.1143 -0.129358 32.6413 0.554304 31.4166C1.12585 30.3928 2.11472 29.8553 2.7692 29.5399C3.46847 29.2029 4.38834 28.8558 5.41442 28.4686L10.6974 26.4746C11.9612 25.9976 13.3769 26.6237 13.8594 27.8729C14.3419 29.1222 13.7086 30.5216 12.4448 30.9986L7.2609 32.9552C6.5713 33.2155 6.04039 33.4168 5.62272 33.5858C6.02688 33.7843 6.54159 34.0232 7.21021 34.3324L23.4082 41.8219C23.8654 42.0333 24.2081 42.1909 24.4787 42.3089C24.4853 42.0166 24.4861 41.6429 24.4861 41.144V24.1142C24.4861 22.777 25.5827 21.6929 26.9354 21.6929C28.2882 21.6929 29.3848 22.777 29.3848 24.1142V41.144C29.3848 41.1749 29.3848 41.2057 29.3848 41.2364C29.3849 41.9841 29.385 42.7011 29.3306 43.2904C29.2739 43.9039 29.1354 44.7385 28.6007 45.507C27.9156 46.4916 26.8552 47.1585 25.6628 47.3548C24.7321 47.5079 23.9087 47.2783 23.3225 47.0692C22.7594 46.8683 22.1025 46.5644 21.4174 46.2475Z" fill="white"/>
<path fill-rule="evenodd" clip-rule="evenodd" d="M22.6599 8.15707C22.688 8.17011 22.7162 8.18315 22.7445 8.19627L39.0387 15.7303C40.0335 16.1902 40.9255 16.6026 41.598 16.9888C42.2276 17.3504 43.1743 17.9576 43.6691 19.0198C44.2608 20.2903 44.2066 21.7633 43.5229 22.988C42.9514 24.0118 41.9625 24.5493 41.308 24.8647C40.6087 25.2017 39.6889 25.5488 38.6628 25.936L33.3798 27.93C32.116 28.407 30.7004 27.7809 30.2179 26.5317C29.7353 25.2824 30.3686 23.883 31.6324 23.406L36.8163 21.4494C37.5059 21.1891 38.0368 20.9878 38.4545 20.8189C38.0503 20.6203 37.5356 20.3814 36.867 20.0723L20.669 12.5827C20.2119 12.3713 19.8691 12.2137 19.5985 12.0957C19.5919 12.388 19.5912 12.7617 19.5912 13.2606V30.2904C19.5912 31.6277 18.4946 32.7117 17.1418 32.7117C15.7891 32.7117 14.6924 31.6277 14.6924 30.2904V13.2606C14.6924 13.2298 14.6924 13.1989 14.6924 13.1682C14.6923 12.4205 14.6922 11.7035 14.7466 11.1142C14.8034 10.5007 14.9419 9.66609 15.4765 8.89763C16.1616 7.91304 17.222 7.24612 18.4144 7.04984C19.3451 6.8967 20.1686 7.12628 20.7547 7.33545C21.3178 7.53635 21.9748 7.84019 22.6599 8.15707Z" fill="#623EF4"/>
<path d="M145.421 47.4045C144.419 47.4045 143.588 47.0755 142.93 46.4175C142.304 45.7281 141.99 44.8978 141.99 43.9265C141.99 42.9238 142.304 42.0935 142.93 41.4355C143.588 40.7775 144.419 40.4485 145.421 40.4485C146.424 40.4485 147.239 40.7775 147.865 41.4355C148.523 42.0935 148.852 42.9238 148.852 43.9265C148.852 44.8978 148.523 45.7281 147.865 46.4175C147.239 47.0755 146.424 47.4045 145.421 47.4045Z" fill="white"/>
<path d="M131.049 46.9345V33.9155C131.049 32.4115 130.564 31.1738 129.592 30.2025C128.652 29.2311 127.43 28.7455 125.926 28.7455C124.924 28.7455 124.031 28.9648 123.247 29.4035C122.464 29.8421 121.853 30.4531 121.414 31.2365C120.976 32.0198 120.756 32.9128 120.756 33.9155L118.735 32.7875C118.735 31.0641 119.111 29.5445 119.863 28.2285C120.615 26.8811 121.649 25.8315 122.965 25.0795C124.313 24.2961 125.817 23.9045 127.477 23.9045C129.169 23.9045 130.673 24.3431 131.989 25.2205C133.305 26.0665 134.339 27.1788 135.091 28.5575C135.843 29.9048 136.219 31.3148 136.219 32.7875V46.9345H131.049ZM115.586 46.9345V24.3745H120.756V46.9345H115.586Z" fill="white"/>
<path d="M97.7698 47.4045C95.7331 47.4045 93.8845 46.8875 92.2238 45.8535C90.5945 44.8195 89.2941 43.4251 88.3228 41.6705C87.3828 39.8845 86.9128 37.8948 86.9128 35.7015C86.9128 33.4768 87.3828 31.4871 88.3228 29.7325C89.2941 27.9465 90.5945 26.5365 92.2238 25.5025C93.8845 24.4371 95.7331 23.9045 97.7698 23.9045C99.4931 23.9045 101.013 24.2805 102.329 25.0325C103.676 25.7531 104.741 26.7558 105.525 28.0405C106.308 29.3251 106.7 30.7821 106.7 32.4115V38.8975C106.7 40.5268 106.308 41.9838 105.525 43.2685C104.773 44.5531 103.723 45.5715 102.376 46.3235C101.028 47.0441 99.4931 47.4045 97.7698 47.4045ZM98.6158 42.5165C100.527 42.5165 102.062 41.8741 103.222 40.5895C104.412 39.3048 105.008 37.6598 105.008 35.6545C105.008 34.3071 104.741 33.1165 104.209 32.0825C103.676 31.0485 102.924 30.2495 101.953 29.6855C101.013 29.0901 99.9005 28.7925 98.6158 28.7925C97.3625 28.7925 96.2501 29.0901 95.2788 29.6855C94.3388 30.2495 93.5868 31.0485 93.0228 32.0825C92.4901 33.1165 92.2238 34.3071 92.2238 35.6545C92.2238 37.0018 92.4901 38.1925 93.0228 39.2265C93.5868 40.2605 94.3388 41.0751 95.2788 41.6705C96.2501 42.2345 97.3625 42.5165 98.6158 42.5165ZM104.679 46.9345V40.8715L105.572 35.3725L104.679 29.9205V24.3745H109.849V46.9345H104.679Z" fill="white"/>
<path d="M67.5742 47.4045C65.3182 47.4045 63.1875 46.9658 61.1821 46.0885C59.1768 45.2111 57.4221 44.0048 55.9181 42.4695C54.4141 40.9028 53.2235 39.1011 52.3461 37.0645C51.5001 34.9965 51.0771 32.7875 51.0771 30.4375C51.0771 28.0875 51.5001 25.8941 52.3461 23.8575C53.2235 21.8208 54.4141 20.0348 55.9181 18.4995C57.4535 16.9328 59.2395 15.7265 61.2761 14.8805C63.3441 14.0031 65.5688 13.5645 67.9501 13.5645C70.5508 13.5645 72.9635 14.0658 75.1881 15.0685C77.4128 16.0711 79.2771 17.4968 80.7812 19.3455L77.1152 23.0115C76.1438 21.6328 74.8435 20.5831 73.2141 19.8625C71.5848 19.1105 69.8301 18.7345 67.9501 18.7345C65.6941 18.7345 63.7045 19.2358 61.9811 20.2385C60.2891 21.2098 58.9731 22.5728 58.0331 24.3275C57.0931 26.0821 56.6231 28.1188 56.6231 30.4375C56.6231 32.7561 57.0931 34.8085 58.0331 36.5945C59.0045 38.3491 60.3048 39.7278 61.9341 40.7305C63.5635 41.7331 65.4121 42.2345 67.4801 42.2345C69.6735 42.2345 71.5535 41.8428 73.1202 41.0595C74.7182 40.2448 75.9401 39.0541 76.7861 37.4875C77.6321 35.8895 78.0551 33.9311 78.0551 31.6125L81.4391 34.0565H67.3861V29.1215H83.6481V29.8735C83.6481 33.7901 82.9431 37.0488 81.5331 39.6495C80.1545 42.2501 78.2588 44.1928 75.8461 45.4775C73.4335 46.7621 70.6762 47.4045 67.5742 47.4045Z" fill="white"/>
<path d="M189.356 46.9345V14.0345H194.761V46.9345H189.356Z" fill="white"/>
<path d="M154.278 46.9345L167.814 14.0345H171.574L185.016 46.9345H179.188L168.66 20.2855H170.634L160.012 46.9345H154.278ZM160.952 40.5895V35.8895H178.389V40.5895H160.952Z" fill="white"/>
</svg>
