<?xml version="1.0" standalone="no"?>
<!DOCTYPE svg PUBLIC "-//W3C//DTD SVG 20010904//EN"
 "http://www.w3.org/TR/2001/REC-SVG-20010904/DTD/svg10.dtd">
<svg version="1.0" xmlns="http://www.w3.org/2000/svg"
 width="286.000000pt" height="76.000000pt" viewBox="0 0 286.000000 76.000000"
 preserveAspectRatio="xMidYMid meet">

<g transform="translate(0.000000,76.000000) scale(0.100000,-0.100000)"
fill="#000000" stroke="none">
<path d="M0 380 l0 -380 1430 0 1430 0 0 380 0 380 -1430 0 -1430 0 0 -380z
m1175 106 c29 -19 30 -24 9 -47 -15 -17 -17 -17 -47 2 -69 41 -147 13 -167
-60 -21 -80 33 -151 115 -151 27 0 85 48 85 69 0 6 -21 11 -50 11 -47 0 -50 2
-50 25 0 25 1 25 80 25 l80 0 0 -33 c0 -112 -147 -188 -240 -124 -54 36 -73
70 -78 136 -4 49 0 66 18 96 47 76 168 102 245 51z m999 -136 c36 -88 66 -162
66 -165 0 -3 -13 -5 -30 -5 -25 0 -32 6 -44 35 -15 35 -15 35 -81 35 -66 0
-66 0 -81 -35 -11 -27 -20 -35 -39 -35 -14 0 -25 4 -25 10 0 9 116 295 127
313 2 4 12 7 22 7 14 0 34 -36 85 -160z m166 -5 l0 -165 -30 0 -30 0 0 165 0
165 30 0 30 0 0 -165z m-1652 -27 c4 -157 3 -158 -153 -87 -63 29 -120 58
-126 65 -22 26 -2 60 46 78 53 21 80 18 80 -9 0 -13 -10 -22 -32 -29 -18 -5
-33 -12 -33 -16 0 -6 84 -46 158 -77 9 -4 12 16 12 80 0 97 6 119 29 115 13
-3 16 -22 19 -120z m733 82 c13 -7 19 -7 19 0 0 5 11 10 25 10 l25 0 0 -115 0
-115 -25 0 c-14 0 -25 4 -25 10 0 6 -9 6 -26 0 -70 -27 -136 10 -150 86 -16
89 79 165 157 124z m179 0 c0 -7 6 -7 19 0 11 5 34 10 51 10 63 0 96 -68 88
-180 -3 -41 -6 -45 -30 -48 l-28 -3 0 78 c0 87 -8 103 -52 103 -36 0 -48 -28
-48 -116 0 -62 -1 -64 -25 -64 l-25 0 0 115 0 115 25 0 c14 0 25 -5 25 -10z
m273 -171 c15 -24 1 -49 -27 -49 -29 0 -44 33 -25 56 15 18 38 15 52 -7z"/>
<path d="M2062 361 c-12 -31 -22 -60 -22 -64 0 -4 20 -7 45 -7 25 0 45 4 45 8
0 5 -10 34 -23 65 l-23 56 -22 -58z"/>
<path d="M1337 342 c-25 -27 -22 -78 5 -96 48 -34 98 -5 98 55 0 52 -69 79
-103 41z"/>
</g>
</svg>
