<svg width="122" height="37" viewBox="0 0 122 37" fill="none" xmlns="http://www.w3.org/2000/svg">
<path fill-rule="evenodd" clip-rule="evenodd" d="M13.1302 28.6519C13.113 28.644 13.0957 28.636 13.0783 28.628L3.08896 24.031C2.47904 23.7504 1.93223 23.4988 1.51992 23.2631C1.13394 23.0425 0.553537 22.672 0.250237 22.0238C-0.112559 21.2486 -0.0793047 20.3498 0.339825 19.6026C0.690222 18.9779 1.29646 18.6499 1.6977 18.4574C2.1264 18.2518 2.69034 18.0401 3.31939 17.8038L6.55823 16.5871C7.33299 16.296 8.20089 16.6781 8.49669 17.4403C8.79255 18.2026 8.40425 19.0565 7.6295 19.3475L4.45141 20.5414C4.02864 20.7002 3.70315 20.823 3.44709 20.9261C3.69487 21.0472 4.01042 21.193 4.42033 21.3817L14.3508 25.9516C14.631 26.0805 14.8411 26.1767 15.0071 26.2487C15.0111 26.0704 15.0116 25.8423 15.0116 25.5379V15.1468C15.0116 14.3309 15.6838 13.6694 16.5132 13.6694C17.3425 13.6694 18.0148 14.3309 18.0148 15.1468V25.5379C18.0148 25.5567 18.0148 25.5756 18.0148 25.5943C18.0149 26.0505 18.0149 26.488 17.9816 26.8476C17.9468 27.2219 17.8619 27.7312 17.5341 28.2001C17.1141 28.8008 16.464 29.2078 15.733 29.3275C15.1624 29.421 14.6576 29.2809 14.2982 29.1533C13.953 29.0307 13.5503 28.8453 13.1302 28.6519Z" fill="white"/>
<path fill-rule="evenodd" clip-rule="evenodd" d="M13.8919 5.41011C13.9092 5.41807 13.9265 5.42603 13.9438 5.43403L23.9332 10.0311C24.5431 10.3117 25.0899 10.5633 25.5022 10.799C25.8882 11.0196 26.4686 11.3901 26.7719 12.0382C27.1347 12.8135 27.1015 13.7122 26.6823 14.4595C26.3319 15.0842 25.7257 15.4122 25.3244 15.6046C24.8957 15.8102 24.3318 16.022 23.7028 16.2583L20.4639 17.4749C19.6892 17.766 18.8213 17.384 18.5255 16.6217C18.2296 15.8595 18.6179 15.0056 19.3927 14.7145L22.5707 13.5207C22.9935 13.3619 23.319 13.2391 23.5751 13.1359C23.3273 13.0148 23.0117 12.869 22.6018 12.6804L12.6714 8.11048C12.3911 7.98152 12.181 7.88534 12.0151 7.81333C12.0111 7.99171 12.0106 8.21971 12.0106 8.52414V18.9152C12.0106 19.7312 11.3383 20.3926 10.509 20.3926C9.67966 20.3926 9.00733 19.7312 9.00733 18.9152V8.52414C9.00733 8.50531 9.00733 8.48649 9.00733 8.46775C9.00728 8.01152 9.00724 7.57403 9.04058 7.21445C9.07536 6.84011 9.16026 6.33087 9.48806 5.86198C9.90804 5.26121 10.5581 4.85427 11.2892 4.73451C11.8598 4.64107 12.3646 4.78115 12.7239 4.90878C13.0691 5.03137 13.4719 5.21676 13.8919 5.41011Z" fill="#623EF4"/>
<path d="M89.0608 29.6442C88.4461 29.6442 87.937 29.4435 87.5336 29.042C87.1494 28.6214 86.9573 28.1147 86.9573 27.5221C86.9573 26.9103 87.1494 26.4036 87.5336 26.0021C87.937 25.6006 88.4461 25.3999 89.0608 25.3999C89.6755 25.3999 90.1749 25.6006 90.5591 26.0021C90.9625 26.4036 91.1642 26.9103 91.1642 27.5221C91.1642 28.1147 90.9625 28.6214 90.5591 29.042C90.1749 29.4435 89.6755 29.6442 89.0608 29.6442Z" fill="white"/>
<path d="M80.25 29.3575V21.4137C80.25 20.496 79.9522 19.7408 79.3567 19.1481C78.7804 18.5554 78.0313 18.2591 77.1092 18.2591C76.4945 18.2591 75.947 18.3929 75.4668 18.6606C74.9866 18.9282 74.612 19.301 74.3431 19.779C74.0741 20.257 73.9397 20.8019 73.9397 21.4137L72.7007 20.7254C72.7007 19.6739 72.9312 18.7466 73.3922 17.9436C73.8532 17.1215 74.4871 16.481 75.2939 16.0222C76.1199 15.5442 77.042 15.3052 78.0601 15.3052C79.0974 15.3052 80.0194 15.5729 80.8262 16.1082C81.633 16.6244 82.2669 17.3031 82.728 18.1444C83.189 18.9665 83.4195 19.8268 83.4195 20.7254V29.3575H80.25ZM70.7701 29.3575V15.592H73.9397V29.3575H70.7701Z" fill="white"/>
<path d="M59.8473 29.6442C58.5987 29.6442 57.4654 29.3288 56.4473 28.6979C55.4484 28.0669 54.6512 27.2162 54.0557 26.1455C53.4794 25.0558 53.1913 23.8417 53.1913 22.5034C53.1913 21.146 53.4794 19.932 54.0557 18.8613C54.6512 17.7716 55.4484 16.9112 56.4473 16.2803C57.4654 15.6303 58.5987 15.3052 59.8473 15.3052C60.9039 15.3052 61.8355 15.5347 62.6423 15.9935C63.4683 16.4332 64.1214 17.045 64.6017 17.8289C65.0819 18.6128 65.322 19.5018 65.322 20.496V24.4535C65.322 25.4477 65.0819 26.3367 64.6017 27.1206C64.1406 27.9044 63.4971 28.5258 62.6711 28.9846C61.8451 29.4244 60.9039 29.6442 59.8473 29.6442ZM60.366 26.6617C61.5378 26.6617 62.479 26.2698 63.1898 25.4859C63.9197 24.7021 64.2847 23.6983 64.2847 22.4747C64.2847 21.6526 64.1214 20.9261 63.7949 20.2952C63.4683 19.6643 63.0073 19.1768 62.4118 18.8326C61.8355 18.4694 61.1536 18.2878 60.366 18.2878C59.5976 18.2878 58.9157 18.4694 58.3202 18.8326C57.7439 19.1768 57.2829 19.6643 56.9371 20.2952C56.6106 20.9261 56.4473 21.6526 56.4473 22.4747C56.4473 23.2968 56.6106 24.0233 56.9371 24.6543C57.2829 25.2852 57.7439 25.7823 58.3202 26.1455C58.9157 26.4897 59.5976 26.6617 60.366 26.6617ZM64.083 29.3575V25.658L64.6305 22.3027L64.083 18.976V15.592H67.2526V29.3575H64.083Z" fill="white"/>
<path d="M41.3354 29.6442C39.9523 29.6442 38.6461 29.3766 37.4167 28.8412C36.1873 28.3059 35.1116 27.5699 34.1895 26.633C33.2675 25.6771 32.5375 24.5778 31.9997 23.3351C31.481 22.0732 31.2217 20.7254 31.2217 19.2915C31.2217 17.8576 31.481 16.5193 31.9997 15.2766C32.5375 14.0339 33.2675 12.9441 34.1895 12.0073C35.1308 11.0513 36.2257 10.3153 37.4743 9.79908C38.7422 9.26375 40.106 8.99609 41.5659 8.99609C43.1603 8.99609 44.6394 9.30199 46.0033 9.91379C47.3672 10.5256 48.5101 11.3955 49.4322 12.5235L47.1847 14.7604C46.5892 13.9191 45.792 13.2787 44.7931 12.8389C43.7942 12.3801 42.7185 12.1507 41.5659 12.1507C40.1829 12.1507 38.9631 12.4566 37.9065 13.0684C36.8692 13.661 36.0624 14.4927 35.4862 15.5633C34.9099 16.634 34.6217 17.8767 34.6217 19.2915C34.6217 20.7063 34.9099 21.9585 35.4862 23.0483C36.0817 24.1189 36.8788 24.9602 37.8777 25.572C38.8766 26.1838 40.01 26.4897 41.2778 26.4897C42.6224 26.4897 43.775 26.2507 44.7355 25.7727C45.7152 25.2756 46.4643 24.5491 46.983 23.5932C47.5016 22.6181 47.761 21.4232 47.761 20.0084L49.8356 21.4997H41.2202V18.4885H51.1898V18.9473C51.1898 21.3372 50.7576 23.3255 49.8932 24.9124C49.048 26.4992 47.8858 27.6846 46.4067 28.4684C44.9276 29.2523 43.2371 29.6442 41.3354 29.6442Z" fill="white"/>
<path d="M115.996 29.3575V9.28287H119.309V29.3575H115.996Z" fill="white"/>
<path d="M94.4906 29.3575L102.789 9.28287H105.094L113.335 29.3575H109.762L103.308 13.097H104.518L98.006 29.3575H94.4906ZM98.5822 25.4859V22.6181H109.272V25.4859H98.5822Z" fill="white"/>
</svg>
